<?xml version="1.0" encoding="utf-8"?>
<!-- Generator: Adobe Illustrator 16.0.0, SVG Export Plug-In . SVG Version: 6.00 Build 0)  -->
<!DOCTYPE svg PUBLIC "-//W3C//DTD SVG 1.1//EN" "http://www.w3.org/Graphics/SVG/1.1/DTD/svg11.dtd">
<svg version="1.1" id="Layer_1" xmlns="http://www.w3.org/2000/svg" xmlns:xlink="http://www.w3.org/1999/xlink" x="0px" y="0px"
	 width="20px" height="20px" viewBox="0 0 20 20" enable-background="new 0 0 20 20" xml:space="preserve">
<path fill="#FFFFFF" d="M14.5,8H14V6.5C14,4.019,11.98,2,9.5,2C7.019,2,5,4.019,5,6.5V8H4.5C3.673,8,3,8.673,3,9.5v8
	C3,18.327,3.673,19,4.5,19h10c0.827,0,1.5-0.673,1.5-1.5v-8C16,8.673,15.327,8,14.5,8z M6,6.5C6,4.57,7.57,3,9.5,3
	C11.43,3,13,4.57,13,6.5V8H6V6.5z M15,17.5c0,0.275-0.225,0.5-0.5,0.5h-10C4.224,18,4,17.775,4,17.5v-8C4,9.224,4.224,9,4.5,9h10
	C14.775,9,15,9.224,15,9.5V17.5z"/>
</svg>
